<?xml version="1.0" standalone="no"?>
<!DOCTYPE svg PUBLIC "-//W3C//DTD SVG 20010904//EN"
 "http://www.w3.org/TR/2001/REC-SVG-20010904/DTD/svg10.dtd">
<svg version="1.0" xmlns="http://www.w3.org/2000/svg"
 width="16.000000pt" height="16.000000pt" viewBox="0 0 16.000000 16.000000"
 preserveAspectRatio="xMidYMid meet">
<metadata>
Created by potrace 1.11, written by Peter Selinger 2001-2013
</metadata>
<g transform="translate(0.000000,16.000000) scale(0.002000,-0.002000)"
fill="#000000" stroke="none">
<path d="M3757 7204 c-1 -1 -64 -5 -139 -8 -75 -4 -145 -9 -155 -10 -10 -2
-50 -7 -88 -10 -39 -4 -82 -9 -95 -11 -14 -3 -49 -8 -79 -11 -30 -3 -62 -7
-70 -9 -9 -1 -36 -6 -61 -10 -25 -4 -54 -9 -65 -11 -11 -3 -42 -9 -70 -15 -27
-6 -63 -13 -80 -15 -144 -24 -470 -123 -691 -209 -473 -185 -865 -431 -1182
-744 -150 -147 -234 -247 -336 -399 -222 -333 -336 -689 -339 -1055 -1 -102 3
-150 19 -246 24 -141 126 -378 239 -551 57 -89 177 -254 196 -270 3 -3 37 -41
76 -85 81 -92 275 -288 380 -382 l72 -65 -22 -37 c-12 -20 -27 -46 -34 -56
-16 -27 -75 -125 -89 -150 -13 -23 -45 -78 -404 -685 -144 -245 -299 -506
-343 -580 -44 -74 -88 -148 -97 -165 -22 -38 -132 -224 -194 -329 -26 -43 -45
-80 -44 -81 2 -1 192 155 423 347 231 192 438 363 459 381 22 18 148 122 280
232 133 110 269 222 302 250 34 27 137 112 229 189 l166 138 58 -26 c204 -91
464 -181 696 -241 94 -24 187 -46 209 -49 21 -4 41 -8 45 -10 3 -2 26 -7 51
-10 42 -6 62 -9 117 -20 11 -3 43 -7 70 -11 26 -4 59 -9 73 -11 14 -2 50 -6
80 -10 30 -3 66 -7 79 -9 119 -20 699 -27 866 -12 50 5 132 10 184 13 52 2
128 8 170 14 42 5 96 12 121 15 119 14 407 71 540 107 41 11 85 22 96 24 12 2
52 13 89 25 38 11 75 22 84 24 39 7 250 82 401 142 236 93 418 182 673 328 9
5 59 36 110 68 217 136 430 310 609 495 296 308 475 624 550 975 33 154 32
460 -1 634 -123 639 -574 1211 -1284 1627 -116 68 -384 198 -517 251 -173 69
-468 163 -598 190 -9 2 -46 10 -82 19 -36 8 -76 17 -90 20 -14 2 -48 9 -77 15
-29 6 -74 13 -100 17 -26 3 -50 7 -53 9 -3 2 -34 6 -70 10 -36 4 -67 8 -70 10
-3 2 -43 6 -90 10 -47 4 -92 9 -100 10 -52 10 -344 19 -648 19 -195 1 -354 0
-355 0z m743 -119 c183 -11 189 -12 255 -19 274 -30 381 -50 548 -100 1268
-383 2095 -1137 2236 -2041 53 -337 12 -635 -128 -928 -39 -83 -120 -223 -148
-257 -6 -8 -33 -44 -60 -79 -141 -190 -363 -398 -613 -574 -52 -37 -100 -72
-107 -77 -7 -6 -14 -10 -16 -10 -2 0 -63 -36 -137 -80 -255 -153 -586 -305
-910 -418 -400 -139 -535 -169 -886 -199 -177 -16 -782 -8 -979 12 -27 3 -72
8 -100 10 -87 9 -265 32 -305 40 -29 6 -134 25 -170 31 -78 14 -264 62 -389
101 -237 73 -417 150 -610 261 -90 51 -94 53 -111 35 -9 -10 -93 -90 -185
-178 -92 -88 -189 -180 -215 -205 -40 -38 -247 -236 -435 -415 -29 -27 -128
-123 -221 -211 -93 -89 -184 -176 -203 -193 -32 -30 -46 -39 -38 -23 3 6 595
1004 618 1042 5 8 74 125 154 260 l145 245 -78 76 c-212 208 -340 378 -463
614 -139 267 -207 542 -207 835 0 120 5 179 23 300 40 266 175 573 365 834 89
122 108 143 245 282 290 292 633 517 1070 701 105 45 388 146 441 158 11 2 90
22 177 44 174 44 162 42 372 75 197 32 296 42 500 52 72 4 131 8 132 9 6 4
316 -3 433 -10z"/>
</g>
</svg>
